<svg width="28" height="28" viewBox="0 0 28 28" fill="none" xmlns="http://www.w3.org/2000/svg">
<path fill-rule="evenodd" clip-rule="evenodd" d="M19.5994 6.65029C19.5994 7.29368 19.4014 7.74413 19.1802 8.00024C18.9865 8.22462 18.6966 8.40029 18.1994 8.40029C17.7023 8.40029 17.4123 8.22462 17.2186 8.00024C16.9975 7.74413 16.7994 7.29368 16.7994 6.65029C16.7994 6.00691 16.9975 5.55646 17.2186 5.30035C17.4123 5.07597 17.7023 4.90029 18.1994 4.90029C18.6966 4.90029 18.9865 5.07597 19.1802 5.30035C19.4014 5.55646 19.5994 6.00691 19.5994 6.65029ZM21.6994 6.65029C21.6994 8.77659 20.3869 10.5003 18.1994 10.5003C16.0119 10.5003 14.6994 8.77659 14.6994 6.65029C14.6994 4.524 16.0119 2.80029 18.1994 2.80029C20.3869 2.80029 21.6994 4.524 21.6994 6.65029ZM11.9552 14.0393C12.3178 13.5939 12.5994 12.8641 12.5994 11.9003C12.5994 10.9364 12.3178 10.2067 11.9552 9.76127C11.6251 9.35575 11.1692 9.10029 10.4994 9.10029C9.82966 9.10029 9.37374 9.35575 9.04361 9.76127C8.68103 10.2067 8.39941 10.9364 8.39941 11.9003C8.39941 12.8641 8.68103 13.5939 9.04361 14.0393C9.37374 14.4448 9.82966 14.7003 10.4994 14.7003C11.1692 14.7003 11.6251 14.4448 11.9552 14.0393ZM10.4994 16.8003C13.1244 16.8003 14.6994 14.6065 14.6994 11.9003C14.6994 9.1941 13.1244 7.00029 10.4994 7.00029C7.87441 7.00029 6.29941 9.1941 6.29941 11.9003C6.29941 14.6065 7.87441 16.8003 10.4994 16.8003ZM16.7994 12.2503C16.2195 12.2503 15.7494 12.7204 15.7494 13.3003C15.7494 13.8802 16.2195 14.3503 16.7994 14.3503H22.0883C22.9954 14.3503 23.7656 14.9362 24.0411 15.7503H18.6255C18.0456 15.7503 17.5755 16.2204 17.5755 16.8003C17.5755 17.3802 18.0456 17.8503 18.6255 17.8503H24.8105C25.6052 17.8503 26.2494 17.2061 26.2494 16.4114C26.2494 14.1133 24.3864 12.2503 22.0883 12.2503H16.7994ZM6.99941 20.3003H13.9994C15.6927 20.3003 17.1051 21.5027 17.4294 23.1003H3.56943C3.89372 21.5027 5.30614 20.3003 6.99941 20.3003ZM1.39941 23.8003C1.39941 20.7075 3.90662 18.2003 6.99941 18.2003H13.9994C17.0922 18.2003 19.5994 20.7075 19.5994 23.8003V24.5003C19.5994 24.8869 19.286 25.2003 18.8994 25.2003H2.09941C1.71282 25.2003 1.39941 24.8869 1.39941 24.5003V23.8003Z" fill="#004ab4"/>
</svg>
