<svg width="922" height="533" viewBox="0 0 922 533" fill="none" xmlns="http://www.w3.org/2000/svg">
<path d="M649.85 364.121C656.073 365.83 662.236 367.416 666.934 368.514C673.462 370.1 681.272 371.076 686.397 376.018C692.438 381.875 690.912 390.721 682.736 393.588C677.794 395.297 672.242 393.832 667.178 392.612C657.903 390.294 648.629 388.342 639.477 385.596" stroke="#000212" stroke-width="2" stroke-miterlimit="10" stroke-linecap="round" stroke-linejoin="round"/>
<path d="M671.571 393.954C675.598 396.517 677.795 403.167 675.171 407.437C671.571 413.294 661.931 411.525 656.44 410.427C648.081 408.779 640.149 405.302 631.973 402.984" stroke="#000212" stroke-width="2" stroke-miterlimit="10" stroke-linecap="round" stroke-linejoin="round"/>
<path d="M624.895 423.36C631.423 424.581 637.83 426.594 644.359 427.814C647.653 428.424 651.009 428.79 654.243 428.424C660.955 427.57 667.849 416.344 660.955 411.159" stroke="#000212" stroke-width="2" stroke-miterlimit="10" stroke-linecap="round" stroke-linejoin="round"/>
<path d="M629.349 437.941C640.575 439.162 648.812 437.087 649.178 428.485" stroke="#000212" stroke-width="2" stroke-miterlimit="10" stroke-linecap="round" stroke-linejoin="round"/>
<path d="M586.211 435.074C584.991 439.528 586.943 443.859 591.397 445.079C595.425 446.178 599.574 444.164 601.221 440.382C601.404 440.016 601.526 439.589 601.648 439.162" stroke="#000212" stroke-width="2" stroke-miterlimit="10" stroke-linecap="round" stroke-linejoin="round"/>
<path d="M585.479 437.636L586.211 435.074L588.163 428.18C589.384 423.726 593.838 421.225 598.109 422.384C602.38 423.543 604.943 427.997 603.784 432.268L601.709 439.284" stroke="#000212" stroke-width="2" stroke-miterlimit="10" stroke-linecap="round" stroke-linejoin="round"/>
<path d="M569.005 435.867L571.14 428.302L571.385 427.509L573.581 419.761C574.923 415.369 579.378 412.928 583.649 414.148C587.92 415.43 590.36 419.883 589.079 424.154L584.808 439.711L583.71 443.737" stroke="#000212" stroke-width="2" stroke-miterlimit="10" stroke-linecap="round" stroke-linejoin="round"/>
<path d="M555.399 424.703L557.473 417.992C557.534 417.748 557.595 417.565 557.656 417.321C559.121 413.538 563.331 411.464 567.297 412.623C571.507 413.843 573.886 418.236 572.605 422.445L569.005 435.806" stroke="#000212" stroke-width="2" stroke-miterlimit="10" stroke-linecap="round" stroke-linejoin="round"/>
<path d="M555.399 424.702C556.253 420.859 553.935 416.893 550.03 415.856C546.064 414.758 541.915 417.137 540.816 421.103L540.328 422.872" stroke="#000212" stroke-width="2" stroke-miterlimit="10" stroke-linecap="round" stroke-linejoin="round"/>
<path d="M571.385 427.509L570.958 429.095L567.358 442.456C566.016 446.849 561.561 449.35 557.29 448.069C553.019 446.788 550.579 442.334 551.86 438.063L557.717 417.382V417.321" stroke="#000212" stroke-width="2" stroke-miterlimit="10" stroke-linecap="round" stroke-linejoin="round"/>
<path d="M585.479 437.636L585.418 437.819L584.869 439.65L583.465 444.164C582.245 448.374 577.852 450.753 573.642 449.472C569.432 448.252 567.053 443.859 568.334 439.65L570.957 429.034L571.14 428.241L572.605 422.445" stroke="#000212" stroke-width="2" stroke-miterlimit="10" stroke-linecap="round" stroke-linejoin="round"/>
<path d="M555.521 424.459L555.399 424.703V424.764L555.338 424.886L552.287 433.183C551.189 437.087 547.345 439.284 543.562 438.308C539.84 437.27 537.582 433.427 538.62 429.644L539.291 427.082L540.389 422.933" stroke="#000212" stroke-width="2" stroke-miterlimit="10" stroke-linecap="round" stroke-linejoin="round"/>
<path d="M1.13969 402.984C14.5019 459.661 75.4558 474.364 123.169 464.907C183.879 452.889 223.173 402.313 258.622 355.824C280.954 326.601 295.964 294.877 329.095 276.514C355.331 261.994 394.136 258.638 418.542 278.832C447.219 302.564 438.128 345.392 408.597 360.583C374.185 378.276 324.518 359.241 301.943 331.177C297.855 326.113 294.316 320.562 291.509 314.705C274.791 279.991 288.764 237.773 316.342 212.943C350.206 182.439 402.495 171.152 444.718 187.503C502.377 209.771 512.81 270.413 510.065 326.174C509.943 328.981 509.76 331.726 509.576 334.533C508.661 349.114 507.38 372.602 525.867 376.689C544.05 380.716 559.792 365.037 573.52 355.702C591.275 343.623 612.753 335.631 634.413 337.156" stroke="#000212" stroke-width="2" stroke-miterlimit="10" stroke-linecap="round" stroke-linejoin="round"/>
<path d="M414.393 156.815C457.425 156.815 492.309 121.935 492.309 78.9076C492.309 35.8804 457.425 1 414.393 1C371.361 1 336.477 35.8804 336.477 78.9076C336.477 121.935 371.361 156.815 414.393 156.815Z" stroke="#0016DB" stroke-width="2" stroke-miterlimit="10" stroke-linecap="round" stroke-linejoin="round"/>
<path d="M893.909 11.0664H760.042V144.919H893.909V11.0664Z" stroke="#0016DB" stroke-width="2" stroke-miterlimit="10" stroke-linecap="round" stroke-linejoin="round"/>
<path d="M703.055 202.51H551.86L627.457 68.6582L703.055 202.51Z" stroke="#0016DB" stroke-width="2" stroke-miterlimit="10" stroke-linecap="round" stroke-linejoin="round"/>
<path d="M630.325 438.124C621.051 437.575 611.776 437.087 602.502 436.66" stroke="#000212" stroke-width="2" stroke-miterlimit="10" stroke-linecap="round" stroke-linejoin="round"/>
<path d="M653.938 365.098C649.606 364.243 645.701 362.474 641.125 363.633C636.304 364.792 631.911 367.172 627.274 368.819C621.295 370.954 614.949 370.832 609.153 368.27C606.285 366.989 602.563 364.731 601.282 361.742C599.268 357.166 605.187 355.458 608.055 353.811C614.827 349.967 621.661 346.185 628.128 341.792C633.376 338.254 638.196 333.678 644.297 331.665C659.429 326.601 675.781 332.214 691.035 333.617C705.861 334.959 721.481 333.8 734.477 325.869C781.337 297.073 755.528 229.049 785.608 189.821C803.668 166.21 843.389 160.964 867.49 177.863C895.801 197.752 892.872 235.272 892.872 266.142C892.872 295.243 896.472 333.922 867.246 350.7C828.746 372.785 785.303 342.585 762.178 312.264C743.874 288.288 726.423 264.434 699.638 249.121C676.086 235.638 649.118 228.622 621.966 228.622C536.545 228.622 467.354 296.585 467.354 380.411C467.354 440.443 505.488 496.875 560.951 519.693C590.36 531.772 623.064 534.151 654.304 528.966C704.397 520.608 763.521 491.446 779.018 439.101C787.377 410.793 783.411 362.291 750.707 350.211C738.26 345.636 722.457 348.747 713.122 358.265C711.292 360.156 709.705 362.291 708.424 364.67C698.662 382.607 706.533 404.204 716.6 420.005C726.423 435.501 740.152 448.435 756.138 457.342C772.612 466.554 791.343 471.374 810.197 471.374C871.395 471.374 921 421.774 921 360.583C921 323.673 901.048 282.431 864.134 269.497C855.653 266.508 846.623 265.471 837.715 266.447" stroke="#000212" stroke-width="2" stroke-miterlimit="10" stroke-linecap="round" stroke-linejoin="round"/>
<path d="M230.922 506.637C238.366 489.432 251.606 474.668 269.483 464.358C310.119 440.931 359.114 441.419 404.509 438.856C449.538 434.586 494.201 433.549 539.047 434.403" stroke="#000212" stroke-width="2" stroke-miterlimit="10" stroke-linecap="round" stroke-linejoin="round"/>
</svg>
