<svg xmlns="http://www.w3.org/2000/svg" width="15.04" height="14.71" viewBox="0 0 15.04 14.71">
  <path id="Path_292" data-name="Path 292" d="M57.9,38h5.14a.109.109,0,0,0,.09-.04.149.149,0,0,0,.04-.09V23.42a.109.109,0,0,0-.04-.09.149.149,0,0,0-.09-.04H48.27a.109.109,0,0,0-.09.04.18.18,0,0,0-.04.09l-.01,4.75a.09.09,0,0,0,.01.05.138.138,0,0,0,.03.04c.01.01.03.02.04.03a.09.09,0,0,0,.05.01h9.37a.109.109,0,0,1,.09.04.18.18,0,0,1,.04.09l.01,9.44a.09.09,0,0,0,.01.05.138.138,0,0,0,.03.04c.01.01.03.02.04.03A.09.09,0,0,0,57.9,38Z" transform="translate(-48.13 -23.29)" fill="#fff"/>
</svg>
