<svg width="28" height="28" viewBox="0 0 28 28" fill="none" xmlns="http://www.w3.org/2000/svg">
<path fill-rule="evenodd" clip-rule="evenodd" d="M3.50039 24.4999V3.4999H15.4004V11.8764C15.4001 11.8843 15.4 11.8921 15.4 11.9V24.4999H13.3V18.9H5.6V24.4999H3.50039ZM15.4 26.5999H13.3V26.6H5.6V26.5999H1.40039V2.0999C1.40039 1.7133 1.71379 1.3999 2.10039 1.3999H16.8004C17.187 1.3999 17.5004 1.7133 17.5004 2.0999V11.2H25.9C26.2866 11.2 26.6 11.5134 26.6 11.9V26.6H23.1H16.1H15.4V26.5999ZM18.2 24.5H21V23.1H18.2V24.5ZM23.1 24.5V21H17.5004V19.6H19.6V17.5H17.5004V16.8H19.6V14.7H17.5004V13.3H24.5V24.5H23.1ZM11.2 21V24.4999H7.7V21H11.2ZM5.6 5.6V7.7H8.4V5.6H5.6ZM5.6 11.9V9.8H8.4V11.9H5.6ZM5.6 14V16.1H8.4V14H5.6ZM10.5 7.7V5.6H13.3V7.7H10.5ZM10.5 9.8V11.9H13.3V9.8H10.5ZM10.5 16.1V14H13.3V16.1H10.5ZM23.1 14.7H21V16.8H23.1V14.7ZM21 17.5H23.1V19.6H21V17.5Z" fill="#6371DE"/>
</svg>
