<svg width="128" height="128" viewBox="0 0 128 128" fill="none" xmlns="http://www.w3.org/2000/svg">
<circle cx="64.0432" cy="63.8527" r="63.2893" fill="#23272D" stroke="#DFE3E8"/>
<path d="M59.7394 34.8579L53.2367 37.0849C55.1073 41.0934 59.2049 52.4063 60.1848 56.4149L66.7766 54.0988C65.6186 50.1794 61.2537 38.421 59.7394 34.8579ZM100.702 52.9619C100.702 52.9619 77.7534 52.8298 63.2314 63.5396C48.7093 74.2495 43.0818 86.7906 43.0818 86.7906L48.9609 92.8479C48.9609 92.8479 57.3828 76.1293 71.4784 68.0217C85.574 59.9141 100.702 61.0297 100.702 61.0297V52.9619ZM39.0732 39.3118L32.4814 41.8951C34.263 45.0128 39.0732 57.3056 40.4094 61.9377L47.1794 59.4435C45.4869 54.8114 40.8548 43.1422 39.0732 39.3118Z" fill="#DFE3E8"/>
</svg>
